<?xml version="1.0" encoding="UTF-8" standalone="no"?>
<!-- Created with Inkscape (http://www.inkscape.org/) -->

<svg
   xmlns:dc="http://purl.org/dc/elements/1.1/"
   xmlns:cc="http://creativecommons.org/ns#"
   xmlns:rdf="http://www.w3.org/1999/02/22-rdf-syntax-ns#"
   xmlns:svg="http://www.w3.org/2000/svg"
   xmlns="http://www.w3.org/2000/svg"
   xmlns:sodipodi="http://sodipodi.sourceforge.net/DTD/sodipodi-0.dtd"
   xmlns:inkscape="http://www.inkscape.org/namespaces/inkscape"
   version="1.1"
   id="svg10"
   width="440"
   height="246"
   viewBox="0 0 440 246"
   sodipodi:docname="sobol.svg"
   inkscape:version="0.92.2 (5c3e80d, 2017-08-06)">
  <metadata
     id="metadata16">
    <rdf:RDF>
      <cc:Work
         rdf:about="">
        <dc:format>image/svg+xml</dc:format>
        <dc:type
           rdf:resource="http://purl.org/dc/dcmitype/StillImage" />
        <dc:title></dc:title>
      </cc:Work>
    </rdf:RDF>
  </metadata>
  <defs
     id="defs14" />
  <sodipodi:namedview
     pagecolor="#ffffff"
     bordercolor="#666666"
     borderopacity="1"
     objecttolerance="10"
     gridtolerance="10"
     guidetolerance="10"
     inkscape:pageopacity="0"
     inkscape:pageshadow="2"
     inkscape:window-width="1366"
     inkscape:window-height="705"
     id="namedview12"
     showgrid="false"
     inkscape:zoom="2.1788618"
     inkscape:cx="220"
     inkscape:cy="123"
     inkscape:window-x="-8"
     inkscape:window-y="-8"
     inkscape:window-maximized="1"
     inkscape:current-layer="svg10" />
  <path
     style="fill:#000000"
     d="m 77.328875,244.3867 c 1.896585,-1.02793 2.630555,-2.05004 2.227108,-3.10141 -0.49256,-1.28359 -0.334106,-1.34604 0.873137,-0.34412 0.811197,0.67324 2.508999,0.95952 3.772892,0.63618 2.040274,-0.52196 2.017618,-0.46304 -0.202012,0.52537 -1.375,0.61229 -3.694431,1.73966 -5.154292,2.50527 -1.459861,0.76561 -3.034861,1.37399 -3.5,1.35197 -0.465139,-0.022 0.427286,-0.72999 1.983167,-1.57326 z m -2.313562,-1.2149 c -0.01016,-0.88099 -1.109605,-1.24364 -3.265313,-1.07705 -1.7875,0.13813 -5.173987,-0.11102 -7.525527,-0.55369 -3.479777,-0.65505 -4.170147,-1.13687 -3.709323,-2.58879 0.311413,-0.98118 0.09056,-2.07792 -0.490785,-2.43721 -0.581344,-0.35929 -0.84021,-1.00401 -0.575257,-1.43271 0.264952,-0.42871 -0.396544,-1.72218 -1.469991,-2.87439 -2.793023,-2.99796 -1.637008,-7.52006 2.872667,-11.23732 l 3.587305,-2.95696 -2.969545,0.74316 C 56.722649,219.9448 51.465526,219.67008 51.75,218.24893 51.8875,217.56202 51.356413,217 50.569806,217 c -2.024369,0 -0.271897,-5.77955 2.566361,-8.46371 l 2.153197,-2.03629 -1.644682,2.47251 c -2.325973,3.49671 -2.160358,5.9751 0.355318,5.31724 1.826954,-0.47776 2.510457,0.47736 2.118421,2.96025 -0.06513,0.4125 1.22554,0.75 2.868159,0.75 2.468016,0 3.240497,-0.60771 4.448973,-3.5 1.691925,-4.04935 2.893404,-4.65885 1.975652,-1.00224 -0.344794,1.37377 -0.308296,3.28627 0.08111,4.25 0.622589,1.54084 0.817344,1.46818 1.614286,-0.60228 0.581801,-1.51152 1.440313,-2.14959 2.397852,-1.78215 2.986076,1.14587 6.793187,-8.03308 8.091495,-19.50861 0.674595,-5.96263 0.62709,-6.14631 -1.449244,-5.60333 -2.656889,0.69479 -2.679236,0.24108 -0.146702,-2.97852 2.356742,-2.99611 2.659388,-5.065 0.475834,-3.25281 -2.471196,2.05091 -2.739731,0.46158 -0.533459,-3.15728 2.511289,-4.11917 2.583681,-5.16452 0.307625,-4.44213 -1.538766,0.48839 -1.750427,-0.19753 -1.75354,-5.68261 -0.0024,-4.18814 -0.651398,-7.54727 -1.975036,-10.22215 l -1.971496,-3.98412 -0.714874,4.18758 c -0.39318,2.30316 -1.211184,5.11494 -1.817787,6.24839 -0.606602,1.13344 -0.746143,2.0011 -0.31009,1.92811 2.057999,-0.34445 2.208126,0.3711 0.789974,3.76521 -0.841329,2.01358 -1.264189,4.49758 -0.93969,5.51998 0.964237,3.03804 -2.513406,11.70824 -6.158116,15.35295 -2.855866,2.85586 -4.076354,3.37942 -7.707962,3.30653 -3.474463,-0.0697 -9.448975,1.86886 -11.578306,3.75691 -0.212808,0.1887 -0.518846,2.04397 -0.680085,4.12283 L 41.13983,208.5 l 2.013492,-2.75 c 1.10742,-1.5125 2.43943,-2.75 2.960022,-2.75 0.520592,0 -0.05686,1.35715 -1.283218,3.0159 l -2.229748,3.01589 2.136719,1.49662 c 2.257677,1.58134 2.75182,5.87318 0.580269,5.03988 -0.689324,-0.26452 -1.519285,-0.0506 -1.844358,0.47538 -1.256982,2.03384 -2.688567,0.86429 -2.182501,-1.78303 C 41.958036,210.76869 40.487293,208 37.964816,208 c -3.091692,0 -2.347014,-1.76888 2.952244,-7.01267 4.800354,-4.7501 10.0674,-6.97474 13.444841,-5.6787 2.424899,0.93052 7.680338,-3.18684 9.674279,-7.57929 2.451181,-5.39971 2.594586,-8.90862 0.328545,-8.03906 -1.233972,0.47352 -0.965249,-0.51579 1.095022,-4.03138 2.221141,-3.79009 2.432851,-4.6589 1.135275,-4.6589 -1.990177,0 -1.998133,0.10678 0.383016,-5.1408 3.034469,-6.68736 2.651188,-10.65046 -1.47882,-15.29085 -3.236704,-3.6367 -4.652749,-6.39931 -2.643675,-5.15763 0.470549,0.29082 0.68159,-0.69513 0.46898,-2.19098 -0.248766,-1.75024 0.354003,-0.96917 1.690955,2.19116 1.142635,2.701 3.203103,6.24859 4.578818,7.88353 4.373781,5.19795 6.757221,10.89253 6.833664,16.32718 0.0559,3.97381 0.387596,5.00076 1.480086,4.58237 1.114541,-0.42685 1.283225,0.22993 0.809234,3.15079 -0.410408,2.52905 -0.256933,3.47875 0.487797,3.01849 0.742966,-0.45918 0.860221,0.23044 0.370762,2.18059 -0.393715,1.56869 -0.882027,6.69831 -1.085137,11.39916 -0.416359,9.63635 -2.46532,17.47371 -5.615108,21.47802 -1.170735,1.48835 -4.434181,3.72747 -7.252102,4.97584 -2.81792,1.24836 -5.741092,3.01751 -6.495937,3.93144 -1.210865,1.46606 -1.093133,1.67098 1,1.74064 2.274558,0.0757 2.25898,0.12039 -0.377555,1.08333 -1.5125,0.55241 -2.75,1.40575 -2.75,1.8963 0,0.49443 1.175938,0.44483 2.638688,-0.11131 1.451279,-0.55177 2.835191,-0.80672 3.075361,-0.56655 0.24017,0.24017 -0.49724,0.73308 -1.638688,1.09536 -2.116461,0.67174 -2.603684,1.66226 -1.406513,2.85944 0.367867,0.36786 1.492867,-0.0769 2.5,-0.98833 2.276937,-2.06059 2.35519,-1.07661 0.178566,2.24534 -1.639884,2.50278 -1.632268,2.51707 0.990682,1.85875 2.012597,-0.50513 2.807715,-0.23488 3.332496,1.13268 0.403783,1.05224 0.200566,1.95899 -0.490682,2.1894 C 63.686843,239.60439 65.160704,241 68.531385,241 c 2.368196,0 3.741263,-0.54694 4.168566,-1.66047 0.530119,-1.38146 0.785513,-1.25949 1.519967,0.72593 0.722499,1.9531 1.052251,2.11841 1.816121,0.91047 0.513335,-0.81176 0.933335,-1.02593 0.933335,-0.47593 0,0.55 -0.436218,1.675 -0.969374,2.5 -0.722198,1.11752 -0.973279,1.16133 -0.984687,0.1718 z M 64.065741,238.96482 C 66.346606,237.74413 66.622768,236 64.535184,236 63.729535,236 62.588702,236.9 62,238 c -1.204906,2.25139 -0.742116,2.46754 2.065741,0.96482 z m -9.139627,-21.37579 c 0.755254,-0.91003 0.81654,-1.63004 0.172618,-2.02801 -0.549112,-0.33937 -1.486796,0.29557 -2.083742,1.41097 -1.234538,2.30676 0.14037,2.75067 1.911124,0.61704 z m -10.047999,-3.49254 c 0.757964,-0.48009 1.055401,-1.39505 0.660973,-2.03324 -0.543384,-0.87922 -1.059014,-0.87664 -2.128116,0.0106 -2.636242,2.18788 -1.426615,3.85548 1.467143,2.0226 z m -4.336996,-8.16302 c 1.172628,-1.89735 -0.537618,-2.36554 -2.279214,-0.62395 C 36.702963,206.86847 36.700224,207 38.226697,207 c 0.910398,0 1.951888,-0.47994 2.314422,-1.06653 z M 85.75,240.53047 C 83.793702,237.84007 83.494055,235.43073 85,234.5 c 0.567158,-0.35052 1,0.48962 1,1.94098 0,2.91258 0.268835,3.03259 2.988609,1.33406 1.526797,-0.9535 2.227695,-0.95874 3.162803,-0.0236 0.935107,0.93511 0.795489,1.64978 -0.630028,3.22496 -2.363409,2.61154 -3.618713,2.51455 -5.771384,-0.4459 z M 91,240 c 0.854313,-1.5963 0.76049,-2 -0.464816,-2 C 89.690833,238 89,238.1882 89,238.41821 c 0,0.23002 -0.273145,1.13002 -0.606989,2 C 87.510727,242.71741 89.736805,242.3603 91,240 Z m 163.74759,-1.85722 c -0.26389,-1.0091 -2.58854,-2.85555 -5.16589,-4.10323 -2.57735,-1.24767 -4.45343,-2.50115 -4.16908,-2.78551 1.0234,-1.02339 -1.58962,-4.4001 -2.98931,-3.86298 -1.97996,0.75978 -1.77715,-1.28304 0.61993,-6.24442 2.25677,-4.67097 4.82237,-6.0927 11.27186,-6.24632 6.09121,-0.14509 8.76362,-1.12516 10.91113,-4.00152 C 267.38374,208.00905 269.2732,201 267.89469,201 267.40261,201 267,201.52844 267,202.17431 c 0,0.64588 -1.125,0.11744 -2.5,-1.17431 l -2.5,-2.34863 v 2.3293 c 0,2.26596 -0.0544,2.28009 -2,0.51933 -1.94933,-1.76412 -2,-1.74663 -2,0.69002 0,3.56138 -2.19343,5.03756 -13.5,9.08549 -16.95573,6.07042 -20.47522,6.88777 -24.26827,5.63595 -3.10468,-1.02463 -3.21703,-1.20528 -1.54035,-2.47655 1.72174,-1.30543 1.72305,-1.37283 0.0272,-1.40311 -0.97977,-0.0175 -2.05931,0.69246 -2.399,1.57766 -0.56765,1.47928 -0.69046,1.47928 -1.5183,0 -0.49535,-0.8852 -1.4982,-1.60946 -2.22853,-1.60946 -0.73032,0 -1.86586,-0.64825 -2.52342,-1.44056 -0.65756,-0.79231 -1.84605,-1.19094 -2.64109,-0.88585 -1.1904,0.45679 -1.26125,0.07 -0.40142,-2.19153 0.57426,-1.51042 0.7595,-3.64297 0.41163,-4.73899 -0.3759,-1.18435 -0.0937,-2.32573 0.69558,-2.81354 0.73043,-0.45143 1.01446,-1.13438 0.63118,-1.51766 -0.93168,-0.93168 -3.87363,1.57133 -3.17518,2.70144 0.3014,0.48768 0.0714,0.88669 -0.51101,0.88669 -0.58246,0 -1.05213,-0.3375 -1.04371,-0.75 0.052,-2.54729 7.59493,-8.25 10.91219,-8.25 5.91127,0 8.97056,-1.90771 10.16343,-6.3377 1.12996,-4.19633 0.0816,-11.99472 -2.32145,-17.26889 -0.9966,-2.1873 -4.98785,-4.6596 -7.76764,-4.81153 -1.83459,-0.10027 -8.07878,-9.19596 -7.46487,-10.87381 0.24311,-0.66444 0.0851,-1.76669 -0.35116,-2.44944 -0.73809,-1.15516 -3.0397,-1.32058 -14.68581,-1.05549 -6.53008,0.14863 -11.89535,-0.87053 -12.28638,-2.33388 -0.22346,-0.83626 -0.0443,-0.98 0.46025,-0.36926 0.45437,0.55 4.37278,1.16524 8.70758,1.3672 6.20002,0.28886 7.71338,0.0952 7.09363,-0.90752 -0.59071,-0.95579 -0.18574,-1.10682 1.61855,-0.60366 1.3235,0.36909 4.20637,0.93636 6.40637,1.26059 3.75357,0.55321 4.01641,0.81213 4.26642,4.20287 0.14653,1.98735 0.74087,4.07847 1.32076,4.64694 0.73649,0.72198 0.85785,0.23741 0.40256,-1.60733 -0.38127,-1.54479 -0.19283,-2.92456 0.45401,-3.32433 0.60819,-0.37588 1.00139,-0.31247 0.87378,0.14091 -0.55116,1.95816 1.29,9.16869 2.62383,10.27566 1.24705,1.03496 1.38724,0.65394 0.96407,-2.62013 l -0.49519,-3.8312 1.52982,4 c 0.84141,2.2 1.5366,4.1125 1.54488,4.25 0.008,0.1375 0.49162,0.25 1.07408,0.25 0.58246,0 0.7809,-0.45 0.44098,-1 -0.33992,-0.55 -0.21506,-1 0.27746,-1 1.29825,0 5.99135,9.77862 7.0801,14.75219 0.85904,3.92424 0.39678,8.27505 -1.31963,12.42049 -0.8449,2.0406 -2.44256,2.75153 -9.53793,4.24422 -4.47824,0.94212 -5.55936,1.5682 -5.81955,3.37009 -0.22768,1.57677 0.20357,2.22809 1.5,2.26546 1.58888,0.0458 1.53431,0.25143 -0.43045,1.62197 -2.63943,1.84118 -2.91117,3.85789 -0.63738,4.73042 1.24143,0.47638 1.35065,0.9345 0.47448,1.99021 -2.0976,2.52745 1.85605,2.8756 4.05719,0.35727 1.95499,-2.2367 1.96131,-2.23718 0.91217,-0.0681 -1.41914,2.93411 -1.43933,2.90007 1.69354,2.85516 2.01843,-0.0289 2.71305,0.42612 2.61111,1.71058 -0.24175,3.04603 5.76427,2.07546 20.33487,-3.28611 7.52737,-2.76987 14.27515,-5.52497 14.99507,-6.12245 0.71992,-0.59748 1.30895,-2.18655 1.30895,-3.53127 0,-1.93602 0.39051,-2.321 1.87604,-1.84951 1.37198,0.43545 2.05071,-0.0166 2.52616,-1.68262 0.64533,-2.26124 0.66149,-2.25727 2.19093,0.53882 1.24909,2.28355 1.81213,2.59169 2.97384,1.62756 1.80947,-1.50173 1.79528,-2.42902 -0.1137,-7.4276 -1.18618,-3.10599 -2.96138,-4.97855 -7.61572,-8.03343 -8.73197,-5.73124 -12.14751,-10.27463 -14.93687,-19.8692 -1.2221,-4.20366 -0.29135,-2.83778 4.40879,6.46997 2.30479,4.5642 4.7871,8.4863 5.51624,8.71577 0.90849,0.28591 0.67245,-0.86329 -0.75,-3.65152 -3.23306,-6.33733 -2.40327,-7.30848 0.98765,-1.1559 3.02327,5.48549 7.59562,11.00749 9.11449,11.00749 0.44201,0 -0.54218,-2.18727 -2.18709,-4.8606 -4.05762,-6.59446 -3.78668,-7.75249 0.42714,-1.82566 4.48127,6.303 8.5821,16.68584 8.5821,21.7289 0,4.83823 -1.99136,9.93975 -4.95924,12.70476 -1.58484,1.4765 -4.20566,2.22049 -9.60407,2.72636 -4.90102,0.45927 -8.19125,1.32144 -9.68056,2.53669 -2.051,1.67358 -2.09702,1.90291 -0.50613,2.52225 0.9625,0.3747 1.75,1.32397 1.75,2.10947 0,1.16136 0.42038,1.20943 2.25,0.2573 l 2.25,-1.1709 -2.25,2.45016 c -2.7078,2.9487 -2.80817,3.64335 -0.5,3.46016 1.22749,-0.0974 1.68395,0.50426 1.52879,2.01517 -0.28713,2.79599 2.38964,3.83401 3.67818,1.42635 0.54311,-1.01481 1.69634,-2.11713 2.56273,-2.4496 1.42662,-0.54744 1.42925,-0.39601 0.0278,1.60486 -2.22886,3.18214 -1.97889,5.51867 0.29057,2.716 2.1358,-2.6376 4.40487,-1.84286 3.9598,1.38692 -0.46092,3.34477 4.13445,3.28583 11.97376,-0.15357 3.70062,-1.62359 10.01595,-4.21105 14.03407,-5.74991 7.96154,-3.0491 12.85004,-7.46371 13.86071,-12.51704 0.32098,-1.60494 1.0255,-2.91807 1.5656,-2.91807 0.54009,0 0.73412,0.64593 0.43118,1.43539 -0.30295,0.78947 -0.0586,1.59947 0.54301,1.8 0.78564,0.26188 0.79206,1.19576 0.0228,3.31461 -0.79851,2.19934 -1.0921,2.44108 -1.15374,0.95 -0.0692,-1.67363 -0.382,-1.51045 -1.91689,1 -2.64915,4.33292 -4.01397,5.22207 -13.11281,8.54274 -4.49939,1.64207 -10.06279,3.96821 -12.36311,5.1692 -2.91036,1.51949 -6.19923,2.23526 -10.8136,2.3534 -3.64715,0.0934 -7.08349,0.44931 -7.63631,0.79097 -0.55281,0.34166 -1.22102,-0.20443 -1.4849,-1.21353 z m 4.88851,-4.84001 c -0.40966,-0.40967 -1.16349,-0.0829 -1.67516,0.72619 -1.53967,2.43457 -1.07785,3.51652 0.72954,1.70914 0.92976,-0.92977 1.35529,-2.02566 0.94562,-2.43533 z m -9.86504,-3.11595 c 0.24358,-0.73075 -0.21359,-0.95424 -1.1875,-0.58051 -0.87096,0.33422 -1.58356,1.04702 -1.58356,1.58401 0,1.31439 2.27278,0.49134 2.77106,-1.0035 z M 246,223.88337 c 0,-1.42687 -2.7368,-1.01164 -3.31819,0.50345 -0.37333,0.97287 0.0425,1.23654 1.39301,0.88336 C 245.13367,224.99329 246,224.36922 246,223.88337 Z M 99.443013,231.75 c 1.266217,-2.3375 3.123437,-6.6125 4.127147,-9.5 1.92612,-5.54111 3.35496,-6.75129 3.54206,-3 0.0617,1.2375 0.66891,-0.225 1.34931,-3.25 0.92115,-4.09537 1.43479,-5.04214 2.0112,-3.70718 0.45311,1.04939 0.0626,4.05501 -0.9418,7.24815 -1.87298,5.95468 -3.5066,7.90599 -3.5732,4.26805 -0.0274,-1.49563 -0.90177,-0.23908 -2.48217,3.56704 C 100.94073,233.48073 99.325973,236 97.947952,236 c -0.443938,0 0.22884,-1.9125 1.495061,-4.25 z M 111,219.05902 C 111,217.92656 111.45,217 112,217 c 0.55,0 1,0.64844 1,1.44098 0,0.79254 -0.45,1.7191 -1,2.05902 -0.55,0.33992 -1,-0.30852 -1,-1.44098 z m 193.63948,-1.75287 c -0.35171,-0.35172 -0.60785,-2.25198 -0.56919,-4.22282 0.0561,-2.86198 0.23583,-3.18072 0.89266,-1.58333 0.657,1.59781 0.93355,1.69836 1.3752,0.5 1.6221,-4.40138 2.65906,-10.10611 2.72656,-15 0.0545,-3.95192 0.31336,-4.93706 0.91963,-3.5 0.98865,2.34339 0.49085,7.37909 -1.65668,16.75891 -1.51662,6.62419 -2.408,8.32741 -3.68818,7.04724 z M 113.01531,211.25 c 0.0167,-4.09775 1.8817,-8.44091 2.03966,-4.75 0.0848,1.98079 0.093,1.98102 0.85779,0.0237 0.42471,-1.08698 0.62687,-3.22448 0.44925,-4.75 -0.37332,-3.20628 0.24413,-3.44009 2.85204,-1.07996 1.80713,1.63542 1.84872,1.55102 1.20849,-2.45279 -0.68341,-4.27378 0.0473,-9.24093 1.35938,-9.24093 0.4091,0 1.2045,1.0125 1.76755,2.25 0.56305,1.2375 1.56976,2.1375 2.23713,2 0.66737,-0.1375 1.2134,0.2 1.2134,0.75 0,1.39704 -2.33592,1.2484 -3.9289,-0.25 -1.09914,-1.03389 -1.22606,-0.3233 -0.73408,4.11006 0.58589,5.27962 0.55781,5.35299 -1.8711,4.88867 -1.92814,-0.36858 -2.46592,-0.053 -2.46592,1.44712 0,1.05518 -0.50342,3.91778 -1.11871,6.36133 -1.40997,5.59949 -3.88783,6.04354 -3.86598,0.69282 z M 361.5,204.62041 c -1.65,-0.70739 -3.73494,-1.09763 -4.63319,-0.8672 -3.49869,0.89751 -13.37896,-5.7166 -17.93518,-12.00629 -3.35649,-4.63349 -3.93155,-3.89931 -0.874,1.11586 1.12758,1.84953 1.81314,3.59978 1.52347,3.88945 -0.51356,0.51357 -7.50625,-4.31712 -8.66105,-5.98324 -0.31897,-0.4602 -1.34896,-0.54163 -2.28887,-0.18095 -1.20276,0.46154 -2.88878,-0.58451 -5.69235,-3.53168 l -3.98343,-4.18746 0.6746,4.21869 c 0.49044,3.06704 0.36003,4.02428 -0.4777,3.50653 -0.79972,-0.49425 -1.16428,0.60633 -1.19144,3.59686 L 317.92176,198.5 316.2872,195 c -1.56629,-3.35382 -1.64901,-3.39559 -1.98055,-1 -0.99398,7.18205 -1.49198,9 -2.46542,9 -0.67593,0 -0.8221,-1.19346 -0.39806,-3.25 0.36858,-1.7875 0.91619,-4.92988 1.21692,-6.98307 l 0.54679,-3.73306 1.86331,2.23306 c 2.11736,2.53754 2.35135,1.74137 0.96208,-3.27353 -0.88282,-3.18674 -0.83893,-3.323 0.5,-1.55227 1.41898,1.87661 1.46659,1.85999 1.43233,-0.5 -0.0195,-1.34262 -0.67858,-3.56613 -1.4646,-4.94113 -2.13411,-3.73324 -1.81995,-4.21681 1.59293,-2.45194 4.38352,2.2668 4.50221,1.31486 0.31153,-2.49857 -5.58503,-5.08227 -8.61527,-13.86089 -4.40446,-12.75974 1.1,0.28766 1.99322,0.45264 1.98494,0.36663 -0.008,-0.086 -0.66353,-1.95638 -1.4561,-4.15638 -0.84991,-2.35914 -1.39725,-7.28172 -1.33428,-12 l 0.10678,-8 0.67699,9.12531 c 0.49961,6.73444 1.25679,10.10802 2.88996,12.87603 2.48818,4.21714 2.27533,5.18108 -0.78264,3.5445 -4.68577,-2.50775 -1.53361,6.02291 3.9645,10.72908 3.9165,3.35238 5.39124,6.71542 2.44985,5.58671 -2.46845,-0.94724 -1.70462,1.3907 1.59194,4.87259 1.70057,1.79618 2.85195,2.51024 2.55863,1.58679 -0.29331,-0.92344 -0.79859,-3.39844 -1.12282,-5.5 -0.51329,-3.32687 -0.42388,-3.5768 0.69136,-1.93261 0.70449,1.03863 2.65496,3.93415 4.33438,6.4345 3.58556,5.33824 6.01854,6.81185 4.45445,2.69798 -1.93928,-5.10068 -0.90507,-4.97744 4.02083,0.47912 l 4.96512,5.5 -1.52877,-4 c -1.62289,-4.24626 -0.35106,-3.15617 2.65021,2.27152 1.87784,3.39599 7.2878,7.70286 10.88467,8.66527 2.49043,0.66636 2.49217,0.66202 0.45301,-1.13393 -2.4915,-2.19434 -7.45443,-9.37964 -7.44927,-10.78499 0.002,-0.55983 0.84378,0.35969 1.87051,2.04337 3.89626,6.38931 15.24822,13.66109 19.11926,12.24732 0.46468,-0.16971 -1.62684,-2.44606 -4.64783,-5.05856 -3.02098,-2.6125 -5.07936,-4.75 -4.57417,-4.75 0.50518,0 1.77576,0.95837 2.8235,2.12971 4.71353,5.26955 13.02134,8.68761 17.28355,7.11092 2.06394,-0.7635 1.82034,-1.03978 -2.84235,-3.22367 -2.80486,-1.31373 -5.62881,-3.02608 -6.27544,-3.80522 -0.64664,-0.77914 1.88003,0.20447 5.61482,2.18582 6.77055,3.59185 11.69529,4.4106 16.12441,2.68074 1.76469,-0.68923 1.50795,-1.03225 -2.18215,-2.91543 -2.30018,-1.17386 -4.40761,-2.49909 -4.68317,-2.94496 -0.27557,-0.44587 2.10497,0.48098 5.29007,2.05967 3.8218,1.89425 6.94459,2.76017 9.18317,2.54637 L 404.5,200.5 l -3,-1.81365 c -1.65,-0.99751 -2.1,-1.52418 -1,-1.17038 5.22564,1.68077 13.1436,2.38602 16.46057,1.46614 6.5907,-1.82778 6.56107,-2.79347 -0.0696,-2.26697 -4.58217,0.36383 -7.38161,0.0611 -9.89101,-1.0696 l -3.5,-1.57706 4,0.71576 c 6.33405,1.13342 13.9259,0.564 17.56408,-1.31738 l 3.3477,-1.73116 -3.41918,3.62499 c -4.19048,4.44271 -6.86558,5.31385 -18.9926,6.18487 -5.225,0.37529 -10.175,1.0325 -11,1.46048 -4.61053,2.39175 -28.95075,3.56471 -33.5,1.61437 z M 416,191.95828 c 7.91158,-0.94801 10.65984,-1.95973 14.8104,-5.45219 1.75871,-1.47986 2.9638,-2.08663 2.67797,-1.34837 -0.74444,1.92278 -6.60987,5.72994 -10.58344,6.86955 -1.86545,0.535 -5.6447,0.91359 -8.39833,0.8413 -4.98777,-0.13093 -4.98215,-0.13435 1.4934,-0.91029 z m 2,-5.99908 c 6.78466,-0.81202 14.70711,-3.69644 16.67913,-6.07257 0.96605,-1.16403 -0.24023,-1.38663 -7.51417,-1.38663 -9.75912,0 -13.09131,-1.28537 -23.40768,-9.02933 -3.1585,-2.37092 -7.32514,-4.83301 -9.25921,-5.47131 -5.13685,-1.69531 -3.26263,-3.08716 3.31198,-2.45958 l 5.68995,0.54314 -4.68673,-1.9208 c -2.57771,-1.05644 -6.40271,-2.96138 -8.5,-4.2332 -4.67951,-2.8377 -14.52017,-11.05535 -13.93708,-11.63845 0.23372,-0.23371 2.70473,0.73032 5.49113,2.1423 2.78641,1.41198 5.38357,2.56723 5.77148,2.56723 0.3879,0 -1.7896,-2.5875 -4.8389,-5.75 C 374.31612,134.45128 365,124.11428 365,123.49954 c 0,-0.90961 5.54105,2.2434 8.88012,5.05304 1.71593,1.44386 3.11988,2.19838 3.11988,1.67669 0,-1.198 -11.04592,-12.63245 -17,-17.59796 l -4.5,-3.75285 3.75,0.4979 c 2.0625,0.27384 3.75,0.20691 3.75,-0.14874 0,-0.98753 -9.02014,-9.13727 -13.27033,-11.989814 -2.07368,-1.391766 -3.62186,-2.678953 -3.44039,-2.860416 0.18146,-0.181462 2.73105,0.582422 5.66575,1.697522 2.93471,1.115099 5.94538,1.793544 6.6904,1.507655 1.67167,-0.641481 4.35457,0.30947 4.35457,1.543474 0,0.501635 -1.125,0.67849 -2.5,0.393011 -1.375,-0.285479 -3.63048,-0.754001 -5.01218,-1.041161 -1.94351,-0.403922 -0.6985,1.210673 5.5,7.132679 4.4067,4.21014 8.01218,8.05606 8.01218,8.5465 0,0.49043 -2.13392,-0.24427 -4.74204,-1.63269 -7.02702,-3.74077 -7.19407,-3.0791 -0.49416,1.95731 6.36743,4.78649 13.45204,12.6143 17.03811,18.82547 2.97925,5.16016 2.78765,5.41766 -1.33671,1.79643 -6.23004,-5.47004 -5.12815,-3.32466 2.06162,4.01398 3.83525,3.91467 8.99818,8.46554 11.47318,10.11305 l 4.5,2.99546 -4.54521,-0.56584 c -2.49987,-0.31121 -5.42487,-0.85397 -6.5,-1.20613 -1.54638,-0.50651 -1.43247,-0.21289 0.54521,1.40533 3.64177,2.97986 12.13364,6.95983 18.11703,8.49109 5.94034,1.52025 5.22188,2.75551 -2.11703,3.63982 l -4.5,0.54224 9,4.9837 c 8.81454,4.88101 9.17387,4.98337 17.43753,4.96704 l 8.43754,-0.0167 -5.43754,1.70558 -5.43753,1.70558 5,0.0549 c 2.75,0.0302 6.26366,-0.60419 7.80814,-1.40977 2.71136,-1.41422 2.78593,-1.38816 2.16382,0.75616 -1.49317,5.14669 -11.79453,9.83733 -21.05985,9.58943 -4.80043,-0.12843 -4.76433,-0.14911 1.58789,-0.90937 z M 126.49502,180.5 c 0.37037,-2.2 1.10602,-5.41893 1.63479,-7.15318 1.03257,-3.38665 5.09624,-8.34682 6.83822,-8.34682 0.58494,0 -0.30603,1.2375 -1.97994,2.75 -2.31618,2.09286 -3.34145,4.22951 -4.29052,8.94141 -1.38427,6.87263 -3.26621,10.12682 -2.20255,3.80859 z m 111.8256,-11.99243 C 220.74285,151.201 221.24968,151.56474 211.0904,148.96526 c -4.43533,-1.13488 -9.52669,-3.8623 -8.71851,-4.67048 0.23886,-0.23887 2.25998,0.49709 4.49137,1.63546 2.23138,1.13837 4.99734,2.06976 6.14656,2.06976 1.14923,0 3.45897,0.70818 5.13277,1.57374 1.6738,0.86555 3.26267,1.35434 3.53081,1.08619 0.26815,-0.26815 2.08944,1.28556 4.04731,3.45269 4.0899,4.52703 5.1562,4.48382 2.77929,-0.11262 -2.8682,-5.54649 -0.88015,-4.33531 2.3874,1.45448 1.72133,3.05004 3.3396,5.54552 3.59615,5.54552 0.25655,0 0.19645,-1.35 -0.13355,-3 -0.98177,-4.90883 0.33438,-3.41165 2.19165,2.49312 0.95029,3.02121 2.34908,6.28371 3.10841,7.25 1.23907,1.57676 1.32257,1.44931 0.81444,-1.24312 -0.52173,-2.76445 -0.40461,-2.69041 1.49171,0.94305 1.13184,2.16868 3.03149,4.9794 4.22145,6.24606 1.18996,1.26665 1.89356,2.573 1.56357,2.903 -0.33,0.32999 -4.56927,-3.30805 -9.42061,-8.08454 z m 3.86271,1.27576 c -0.71756,-0.71756 -1.18333,-0.7766 -1.18333,-0.15 0,0.56834 0.3,1.33334 0.66667,1.7 0.36666,0.36667 0.89916,0.43417 1.18333,0.15 0.28417,-0.28416 -0.0158,-1.04916 -0.66667,-1.7 z m -99.67325,-5.76702 C 142.16462,163.45734 142.44852,163 143.14098,163 c 0.97924,0 0.99235,-0.26667 0.059,-1.2 -1.73488,-1.73488 -1.47808,-3.27568 0.3,-1.8 0.825,0.68469 1.5,1.83823 1.5,2.56343 0,1.74783 -1.696,2.73746 -2.48992,1.45288 z M 152,160 c -3.73447,-1.56703 -4.0747,-1.91119 -2,-2.02307 l 2.5,-0.13482 -2.75,-1.00439 c -4.72743,-1.72661 -3.26217,-3.1756 2.5,-2.47224 2.8875,0.35246 6.375,0.93506 7.75,1.29467 l 2.5,0.65383 -2,-2.40699 -2,-2.40699 2.25,1.90499 c 3.12633,2.64694 2.9869,4.99116 -0.25,4.20342 -1.375,-0.33463 -3.7375,-0.88063 -5.25,-1.21335 l -2.75,-0.60494 2.75,2.47129 c 4.63817,4.1681 3.71579,4.66152 -3.25,1.73859 z m 15.30214,-5.88378 c -8.76721,-2.8313 -7.74709,-4.05408 1.19786,-1.43583 1.97156,0.57709 1.97291,0.55508 0.095,-1.54749 -2.25873,-2.52896 -1.69073,-2.59714 4.90499,-0.58877 2.75,0.83736 5.9,1.45768 7,1.37848 4.22832,-0.30443 6.5,0.121 6.5,1.21729 0,1.15273 -7.56808,0.72234 -13,-0.73928 -2.05738,-0.55361 -2.27869,-0.43616 -1.25,0.66334 1.38952,1.48517 1.65533,2.99148 0.5,2.83345 -0.4125,-0.0564 -3.08904,-0.85796 -5.94786,-1.78119 z M 59.439673,146.54827 c -1.474605,-2.25053 -4.376188,-12.08738 -4.424052,-14.99827 -0.04436,-2.6976 1.909232,1.61213 2.917864,6.43698 0.630878,3.01785 1.839887,6.54439 2.686686,7.83677 0.846799,1.29238 1.314635,2.57478 1.039635,2.84978 -0.275,0.275 -1.27406,-0.68137 -2.220133,-2.12526 z m 12.12462,0.74486 c -0.542685,-1.4252 -0.427821,-1.54006 0.559795,-0.5598 0.683418,0.67834 0.990671,1.48524 0.682784,1.79313 -0.307887,0.30789 -0.867048,-0.24711 -1.242579,-1.23333 z M 60.646735,143.25 c -0.268423,-0.9625 -0.799325,-2.875 -1.179783,-4.25 -0.463829,-1.67631 -0.359944,-2.17052 0.3153,-1.5 1.100081,1.09239 2.693091,7.5 1.864591,7.5 -0.281637,0 -0.731686,-0.7875 -1.000108,-1.75 z m -6.699436,-3.8135 C 52.456912,137.64069 51.657929,127.67055 53.074568,128.54609 53.583555,128.86066 54,130.63718 54,132.49392 c 0,1.85673 0.438862,4.53018 0.975249,5.94098 1.118812,2.9427 0.822574,3.23134 -1.02795,1.0016 z m -3.547595,-4.20181 c -3.078526,-2.05559 -5.049686,-12.1847 -2.534348,-13.02314 0.978879,-0.3263 1.155344,0.14787 0.648887,1.74358 -0.453334,1.42832 -0.180371,2.60156 0.783663,3.36831 0.813615,0.64711 1.774819,2.86406 2.13601,4.92656 0.700886,4.00226 0.661213,4.11675 -1.034212,2.98469 z M 316.19495,132.5 c 0.0204,-1.65 0.2445,-2.20394 0.49804,-1.23097 0.25354,0.97297 0.23687,2.32297 -0.0371,3 -0.27393,0.67703 -0.48137,-0.11903 -0.46099,-1.76903 z m 2.10471,-10.5 c 0,-3.025 0.18747,-4.2625 0.41659,-2.75 0.22913,1.5125 0.22913,3.9875 0,5.5 -0.22912,1.5125 -0.41659,0.275 -0.41659,-2.75 z m -273.944776,0.97558 c 0.567615,-2.83807 0.473556,-2.95413 -1.526631,-1.88366 -1.888044,1.01045 -2.040571,0.92757 -1.335332,-0.72559 0.437901,-1.02648 0.827563,-2.65383 0.865916,-3.61633 0.03835,-0.9625 0.47579,-1.75 0.97208,-1.75 0.49629,0 0.657695,0.93555 0.358678,2.07899 -0.388612,1.48605 -0.15238,1.92884 0.82829,1.55252 1.034241,-0.39687 1.33321,0.44523 1.214544,3.42101 C 45.645851,124.22363 45.164386,126 44.662507,126 c -0.501879,0 -0.640309,-1.36099 -0.307623,-3.02442 z m 270.724066,0.44109 c 0.048,-1.16495 0.28494,-1.4019 0.60416,-0.60417 0.28887,0.72187 0.25335,1.58437 -0.0789,1.91667 -0.33229,0.33229 -0.56864,-0.25834 -0.52522,-1.3125 z M 210.0521,120.68538 c -0.0535,-1.86245 3.96862,-11.99799 4.53602,-11.4306 0.1736,0.17361 -0.76426,3.2248 -2.08413,6.78043 -1.31988,3.55564 -2.42323,5.64821 -2.45189,4.65017 z M 213.0856,121 c -0.0302,-0.825 0.38124,-2.175 0.9144,-3 1.18132,-1.82797 1.18132,-0.24909 0,2.5 -0.56668,1.31874 -0.87815,1.48906 -0.9144,0.5 z m 107.20041,-6.5 c 0.008,-2.75 0.20172,-3.75631 0.43157,-2.23625 0.22986,1.52006 0.22371,3.77006 -0.0136,5 -0.23736,1.22994 -0.42542,-0.0138 -0.41792,-2.76375 z M 38,116.10699 c 0,-0.49116 0.675,-1.15203 1.5,-1.46862 0.913711,-0.35062 1.5,-0.002 1.5,0.89301 C 41,116.33912 40.325,117 39.5,117 38.675,117 38,116.59814 38,116.10699 Z m 279.07895,-1.69032 c 0.048,-1.16495 0.28494,-1.4019 0.60416,-0.60417 0.28887,0.72187 0.25335,1.58437 -0.0789,1.91667 -0.33229,0.33229 -0.56864,-0.25834 -0.52522,-1.3125 z M 209.08872,114 c -0.0879,-1.90604 4.15507,-10.8674 6.39191,-13.5 0.93464,-1.1 0.37682,0.475 -1.23959,3.5 -1.6164,3.025 -3.42137,6.85 -4.01103,8.5 -0.58966,1.65 -1.10325,2.325 -1.14129,1.5 z M 37.009138,112.51101 c -0.679663,-0.81894 -1.630992,-1.24472 -2.114063,-0.94616 -0.483071,0.29855 -1.977962,-0.55683 -3.32198,-1.90085 -1.951256,-1.95125 -2.557189,-2.14783 -3.007033,-0.97556 -0.91688,2.38935 -6.558988,-3.90578 -6.597865,-7.36152 -0.03043,-2.705116 -0.09522,-2.743062 -1.503747,-0.88067 -2.14647,2.83814 -3.96445,0.53859 -3.96445,-5.014597 0,-3.619476 -0.21906,-4.168765 -1.153103,-2.891385 -1.866757,2.552943 -3.866672,-4.610483 -2.434308,-8.719365 1.415925,-4.061725 1.414545,-4.066347 -0.851901,-2.853382 -3.0258875,1.619406 -3.3661576,-0.45104 -0.612045,-3.724118 2.272177,-2.700328 2.344583,-3.093601 0.939029,-5.100312 C 11.550028,70.947187 10.039844,67.163258 9.0317081,63.73436 8.0235718,60.305462 6.0385096,54.35 4.6204586,50.5 1.5358322,42.125258 1.3914469,37.93761 3.9899216,32.212361 7.1144689,25.328009 13.700726,23.414344 22.739273,26.764655 c 5.452723,2.021156 9.441301,1.869488 8.598445,-0.32696 C 30.945951,25.416766 31.532651,25 33.361626,25 c 1.878584,0 2.419832,-0.405936 2,-1.5 C 34.812123,22.068018 36.416195,21.492441 39.75,21.925354 40.4375,22.01463 41,21.40707 41,20.575222 41,19.641662 41.574127,19.283083 42.5,19.638374 43.325693,19.955222 44,19.668249 44,19 c 0,-0.714355 0.675021,-0.954948 1.64016,-0.584589 1.041305,0.399586 2.17892,-0.139799 3.115729,-1.477282 1.030086,-1.470653 1.792412,-1.789828 2.525043,-1.057197 0.73263,0.73263 1.419786,0.543038 2.276058,-0.627983 0.978936,-1.338775 1.520638,-1.433413 2.683006,-0.468733 1.169394,0.970511 1.812494,0.815264 3.2632,-0.787747 C 61.363811,11.940512 64,11.301463 64,12.90638 c 0,1.227401 4.106924,0.150678 6.150723,-1.612552 1.157985,-0.999018 1.854726,-1.094028 2.334157,-0.318293 0.375888,0.608201 1.545563,0.83219 2.599277,0.497755 C 76.137871,11.138854 77,11.289299 77,11.807612 77,12.325926 78.125,12.75 79.5,12.75 c 1.375,0 2.5,-0.352451 2.5,-0.783224 0,-0.430773 2.008213,-2.8495229 4.462696,-5.3749998 4.078806,-4.196783 4.874508,-4.5914546 9.25,-4.5880381 9.292504,0.00726 14.277134,5.7148138 16.273334,18.6334979 C 113.08067,27.72133 114.75136,33 115.89881,33 c 0.3609,0 1.62677,-0.679826 2.81304,-1.510724 2.43107,-1.702791 2.93732,-1.262141 3.43757,2.992169 0.26586,2.26093 -0.0924,3.067928 -1.4824,3.339304 -1.59303,0.311013 -1.6806,0.07314 -0.66898,-1.817091 1.50586,-2.813727 0.86689,-3.354869 -2.27243,-1.9245 -1.64429,0.749189 -2.6813,2.165568 -2.95603,4.03744 C 114.53682,39.702469 114.71845,41 115.17319,41 115.62794,41 116,41.715368 116,42.589707 c 0,0.874339 1.0125,2.440198 2.25,3.479685 1.61349,1.355313 1.91206,2.114901 1.05543,2.685055 -1.79085,1.191941 -1.02996,3.793753 1.99375,6.817457 1.48545,1.485453 2.70082,3.017228 2.70082,3.403945 0,0.996897 -5.13948,3.218005 -5.83556,2.521928 -0.3174,-0.317407 0.41575,-0.836739 1.62923,-1.154072 2.96322,-0.774899 2.78076,-2.746696 -0.49241,-5.321372 -2.95548,-2.324782 -3.84996,-5.065185 -2.02204,-6.194901 0.819,-0.506171 0.50067,-1.432823 -1.06457,-3.098949 -1.22812,-1.307271 -1.92883,-2.680973 -1.55713,-3.05267 C 115.02922,42.304116 114.69259,42 113.90946,42 c -1.06674,0 -1.33705,-1.091592 -1.07773,-4.35216 0.42883,-5.391803 -3.18055,-22.851103 -5.56604,-26.92406 C 104.52769,6.0489467 100.69848,3.7071035 95.612901,3.5972362 91.778543,3.5144 90.590682,4.005204 87.591873,6.911391 83.693261,10.68959 78,21.287472 78,24.766456 78,25.994905 77.541427,27 76.980948,27 c -1.19375,0 -0.336472,-4.236475 1.659392,-8.20034 1.766144,-3.507635 1.726068,-5.154242 -0.108315,-4.450323 -0.807386,0.309823 -1.747449,0.111117 -2.089028,-0.441569 -0.40164,-0.649868 -1.13451,-0.578753 -2.074406,0.201292 -1.083262,0.899027 -1.742079,0.917452 -2.587179,0.07235 -0.639041,-0.639041 -1.602412,-0.767995 -2.207618,-0.295506 -2.30036,1.795908 -6.351172,2.136621 -6.946854,0.584298 -0.487026,-1.269169 -0.926679,-1.170465 -2.704259,0.607115 C 58.378913,16.621087 57.5,16.9 56.7,16.1 55.126498,14.526498 54,14.742047 54,16.616631 c 0,1.106321 -0.61094,1.456867 -1.935417,1.110509 -1.118971,-0.292618 -2.160344,0.08003 -2.468615,0.883368 C 49.302709,19.374729 48.148646,20 47.031385,20 45.914123,20 45,20.435877 45,20.968615 c 0,0.532739 -0.629482,0.72706 -1.398849,0.431827 -0.769368,-0.295234 -1.695925,-0.05611 -2.059017,0.531384 C 41.179041,22.519322 40.008524,23 38.940983,23 37.873442,23 37,23.675 37,24.5 c 0,0.825362 -0.885402,1.5 -1.968615,1.5 -1.290025,0 -1.780727,0.489628 -1.423545,1.42043 0.356431,0.928845 -0.245036,1.534488 -1.737934,1.75 -2.158128,0.311543 -2.066589,0.536532 1.673545,4.113312 L 37.5,37.067483 30.766892,32.597548 C 23.932338,28.060265 18.650146,26.526687 12.072372,27.169972 4.9526458,27.866258 1.9370146,38.335766 5.7844628,49 c 1.0913612,3.025 2.9653756,8.425 4.1644764,12 1.1991008,3.575 2.9416028,8.075 3.8722268,10 1.667767,3.449784 1.65608,3.531828 -0.814561,5.718399 -2.391844,2.116833 -2.411223,2.219845 -0.423272,2.25 3.064297,0.04648 3.397231,0.83387 1.883977,4.455597 -1.810174,4.332355 -0.95016,7.904785 1.577332,6.552112 2.724865,-1.458303 2.897298,-1.260461 1.907971,2.189122 -0.499277,1.740877 -0.637458,4.242266 -0.307068,5.558643 l 0.600708,2.393417 2.191325,-2.058647 c 3.15552,-2.964457 3.664375,-2.587284 2.956421,2.191357 -0.593969,4.00926 -0.539795,4.13671 0.95638,2.25 1.55533,-1.96131 1.58663,-1.95002 1.617818,0.58333 0.04177,3.39299 1.045029,4.28084 2.534909,2.24331 1.062695,-1.45332 1.277608,-1.33648 1.867929,1.01554 C 30.977264,108.7576 33,110.16136 33,108.16667 c 0,-0.45834 0.675,-0.83334 1.5,-0.83334 0.825,0 1.5,0.51 1.5,1.13334 0,2.31597 2.147156,3.45782 4.158843,2.21166 1.519276,-0.94113 2.086713,-0.8817 2.818883,0.29528 0.595099,0.95663 0.505948,1.72746 -0.254119,2.19721 -0.643951,0.39798 -1.513307,0.18486 -1.931901,-0.47361 -0.580906,-0.91379 -0.764706,-0.90129 -0.776393,0.0528 -0.02075,1.6938 -1.499683,1.57622 -3.006175,-0.23899 z M 75.75,113.33772 c 0.6875,-0.27741 1.8125,-0.27741 2.5,0 0.6875,0.27741 0.125,0.50439 -1.25,0.50439 -1.375,0 -1.9375,-0.22698 -1.25,-0.50439 z m 5.0625,-1.02083 c 0.721875,-0.28887 1.584375,-0.25335 1.916667,0.0789 0.332291,0.3323 -0.258334,0.56864 -1.3125,0.52522 -1.164943,-0.048 -1.4019,-0.28494 -0.604167,-0.60416 z m 4.744798,-1.73513 c 1.066757,-0.78003 2.152233,-1.20556 2.412169,-0.94563 0.550359,0.55036 -2.02834,2.32607 -3.410597,2.34856 -0.517621,0.008 -0.06833,-0.6229 0.998428,-1.40293 z m -25.117599,-3.67933 c -0.865519,-1.40044 1.316344,-1.90131 2.431118,-0.55809 0.828529,0.99832 0.723,1.32233 -0.430682,1.32233 -0.840462,0 -1.740658,-0.34391 -2.000436,-0.76424 z m 258.639251,-0.48576 c 0.048,-1.16495 0.28494,-1.4019 0.60416,-0.60417 0.28887,0.72187 0.25335,1.58437 -0.0789,1.91667 -0.33229,0.33229 -0.56864,-0.25834 -0.52522,-1.3125 z M 79.428571,104.90574 c 0,-1.45167 0.2937,-1.57279 1.535715,-0.63331 0.844643,0.6389 1.666062,1.23182 1.825377,1.3176 0.159315,0.0858 -0.531757,0.37077 -1.535714,0.63331 -1.266494,0.3312 -1.825378,-0.0722 -1.825378,-1.3176 z M 322.15789,105 c 0,-1.375 0.22698,-1.9375 0.50439,-1.25 0.27741,0.6875 0.27741,1.8125 0,2.5 -0.27741,0.6875 -0.50439,0.125 -0.50439,-1.25 z m -110.45657,-3.66404 c 0.45246,-1.17908 0.26852,-1.435351 -0.63115,-0.87933 -1.92678,1.19082 0.37664,-2.776535 2.62523,-4.521641 1.72788,-1.34098 1.7302,-1.312879 0.0546,0.660985 -1.96462,2.314326 -2.32174,3.875416 -0.65023,2.842366 0.77295,-0.477709 0.76249,-0.04949 -0.0352,1.44098 -1.34719,2.51726 -2.27299,2.82736 -1.36326,0.45664 z m 109.02989,-1.2558 c -0.43497,-1.663346 -0.30483,-2.053778 0.43724,-1.31171 0.5811,0.581102 0.85979,1.64682 0.61931,2.36826 -0.24965,0.74895 -0.70294,0.29565 -1.05655,-1.05655 z m -262.14016,0.0672 c -0.289841,-0.468971 0.11929,-1.706471 0.90918,-2.749998 0.78989,-1.043527 1.450475,-1.36138 1.467967,-0.706339 0.01749,0.655041 -0.46624,1.498791 -1.07496,1.875 -0.77153,0.476832 -0.695806,0.944412 0.25,1.543707 0.907859,0.57524 0.962709,0.86475 0.16578,0.875 -0.655041,0.008 -1.428126,-0.3684 -1.717967,-0.83737 z m 13.631456,-0.704024 c -4.700118,-3.292091 -1.324204,-8.339364 6.140634,-9.18076 3.760688,-0.423884 4.506849,-0.21342 4.850943,1.368264 1.480042,6.803257 -5.425224,11.71132 -10.991577,7.812496 z M 77.015313,98.25 c 0.01211,-1.384058 0.197841,-1.461823 0.888196,-0.371885 1.067344,1.68513 3.211232,0.584469 2.495346,-1.281098 -0.282588,-0.736413 0.179479,-1.604967 1.026816,-1.930121 C 83.858305,93.733407 82.112864,91 79.084141,91 c -4.991379,0 -7.916968,4.038338 -5.146641,7.104167 2.04264,2.260523 3.058888,2.308673 3.077813,0.145833 z M 350.5,90.304256 C 346.65,86.669121 341.025,82.097189 338,80.144409 l -5.5,-3.55051 3.25,-0.94161 c 1.7875,-0.517885 3.25,-1.26645 3.25,-1.663477 0,-0.397027 -3.01956,-2.071475 -6.71014,-3.720994 l -6.71013,-2.999127 3.08895,-1.59736 C 331.14183,64.392416 333,62.229949 333,60.630706 c 0,-0.113146 -1.75289,-0.275621 -3.89532,-0.361055 -2.14243,-0.08543 -5.62993,-0.911459 -7.75,-1.835611 L 317.5,56.753764 320.75,55.84829 c 3.71883,-1.036094 4.35122,-2.843509 1,-2.858059 -2.97777,-0.01293 -11.90337,-4.221423 -17.64464,-8.319591 -6.09316,-4.349348 -11.66898,-6.686447 -18.22579,-7.63933 L 280.5,36.249512 l 5.22149,-0.124756 c 6.04295,-0.144383 13.83002,2.907552 21.17415,8.29864 6.2489,4.58711 14.77638,7.892201 18.46124,7.155229 2.63484,-0.526969 2.76717,-0.424606 1.51506,1.171988 -0.75457,0.962163 -1.93444,2.109248 -2.62194,2.549077 -2.33967,1.496811 -1.25825,2.576527 3.25908,3.253943 2.90697,0.435927 5.00719,0.26279 5.91098,-0.487285 2.23419,-1.854218 2.86512,0.481499 1.06852,3.955733 -0.87623,1.694449 -2.24462,3.330809 -3.04087,3.636356 -2.12947,0.817155 -1.76378,2.044855 0.80229,2.693475 3.14709,0.795485 11.75,6.387653 11.75,7.637881 0,0.646087 -1.50025,0.793942 -4,0.394216 -4.99598,-0.798889 -5.13649,0.549325 -0.3271,3.138587 3.7156,2.000395 20.37541,17.513978 18.72233,17.434201 C 357.90285,96.933035 354.35,93.939392 350.5,90.304256 Z M 323.07279,95 c -0.0468,-0.825 -0.76539,-2.804452 -1.59684,-4.398781 -0.83144,-1.59433 -1.33758,-3.072921 -1.12474,-3.285757 0.70954,-0.709548 3.79312,6.755687 3.29605,7.979615 -0.31339,0.771638 -0.51997,0.66553 -0.57447,-0.295077 z M 108.01531,92.472241 C 107.99551,91.14315 111.66323,88 113.23394,88 c 0.66609,0 0.0984,0.761416 -1.26143,1.692036 -1.35988,0.930619 -2.80312,2.168119 -3.2072,2.75 -0.48412,0.697149 -0.73991,0.70745 -0.75,0.0302 z M 114,85.940983 c 0,-0.582459 0.45,-0.780902 1,-0.440983 0.55,0.339919 1,0.816476 1,1.059017 C 116,86.801558 115.55,87 115,87 c -0.55,0 -1,-0.476558 -1,-1.059017 z M 46.634859,83.92742 c -1.449173,-1.139919 -2.627968,-2.602419 -2.619546,-3.25 C 44.024268,79.988836 44.433086,80.122764 45,81 c 0.734884,1.137152 0.973079,0.708643 0.984687,-1.771439 0.0192,-4.102748 3.561314,-6.212077 7.453609,-4.438629 C 59.072997,77.357273 58.563745,84 52.732224,84 50.899501,84 48.8675,83.4675 48.216667,82.816667 c -0.650834,-0.650834 -1.455617,-0.91105 -1.788408,-0.578259 -0.332791,0.332791 0.672209,1.297274 2.233333,2.143296 1.561124,0.846021 2.336594,1.556238 1.723267,1.578258 -0.613328,0.02202 -2.300828,-0.892623 -3.75,-2.032542 z m 7.720914,-5.412166 c 0.712587,-1.856973 -2.450668,-3.692673 -4.345353,-2.521694 -1.142429,0.70606 -1.155192,1.127074 -0.07367,2.430225 1.646736,1.984196 3.676595,2.026212 4.419026,0.09147 z M 323,85.139547 c 0,-0.473249 -1.14724,-2.551008 -2.54943,-4.617242 -1.40218,-2.066233 -2.34602,-3.960184 -2.09743,-4.20878 0.2486,-0.248595 1.26245,0.919996 2.253,2.59687 0.99055,1.676873 2.0844,2.590323 2.43077,2.029888 0.34636,-0.560435 0.62976,0.348733 0.62976,2.020372 0,1.67164 -0.15,3.039345 -0.33334,3.039345 C 323.15,86 323,85.612796 323,85.139547 Z M 117.625,81.202254 c -0.27117,-0.43876 -0.0927,-1.445586 0.39672,-2.237392 0.67091,-1.085563 0.84829,-0.889357 0.72121,0.797746 -0.18286,2.42756 -0.36356,2.660251 -1.11793,1.439646 z m 203.61496,-4.574939 c -0.5967,-1.309626 -2.5214,-4.017206 -4.27711,-6.016845 -2.26015,-2.574164 -2.64775,-3.431367 -1.32752,-2.935858 1.70794,0.641026 1.73859,0.53817 0.36467,-1.223719 -0.825,-1.057962 -2.4,-2.742624 -3.5,-3.743693 -1.99367,-1.814364 -1.99337,-1.816933 0.0948,-0.811545 2.6292,1.265885 7.40521,7.439887 7.40521,9.572806 0,0.881048 0.73596,2.725117 1.63546,4.097931 0.8995,1.372813 1.4226,2.708883 1.16244,2.969042 -0.26016,0.26016 -0.96123,-0.598494 -1.55794,-1.908119 z m -3.11587,-7.893982 c -0.98762,-0.980267 -1.10248,-0.865403 -0.5598,0.559795 0.37553,0.986221 0.93469,1.541221 1.24258,1.233333 0.30789,-0.307887 6.4e-4,-1.114794 -0.68278,-1.793128 z M 119.5,75.689037 c -1.70384,-1.700235 -1.74086,-1.903667 -0.25,-1.373789 1.4145,0.502739 1.75,0.05025 1.75,-2.360202 0,-1.640201 -0.52102,-3.816468 -1.15782,-4.836149 -1.33102,-2.131304 -0.39682,-5.579717 1.23789,-4.569411 0.75473,0.466452 0.77282,0.99762 0.0583,1.712137 -0.71452,0.714518 -0.62083,1.84289 0.30198,3.637133 0.83349,1.620567 1.09692,3.955591 0.69876,6.193648 -0.63884,3.590824 -0.64,3.591526 -2.63912,1.596633 z M 83.450416,69.56467 c -1.381027,-2.107714 -1.421014,-2.843547 -0.280517,-5.161981 1.879978,-3.821671 5.100878,-4.764136 8.132329,-2.379596 1.336472,1.051268 2.715209,1.626137 3.06386,1.277485 C 94.71474,62.951927 95,63.22381 95,63.904762 c 0,0.680952 -0.675,1.913095 -1.5,2.738095 -0.825,0.825 -1.485688,2.030357 -1.468197,2.678572 0.01749,0.648214 0.692492,0.305063 1.5,-0.762559 C 94.339312,67.491249 95,67.127191 95,67.749853 c 0,1.272412 -1.776149,2.584566 -3.941183,2.911603 -0.792651,0.119732 -2.466418,0.475013 -3.719482,0.789512 -1.692636,0.424825 -2.692328,-0.06007 -3.888919,-1.886298 z m 5.046744,-3.555721 c 1.247501,-3.93053 -1.65022,-5.459989 -3.565221,-1.881775 -0.887972,1.65919 -0.840712,2.315829 0.214816,2.984687 2.033657,1.288671 2.656411,1.083668 3.350405,-1.102912 z M 14.870589,64.360425 C 12.421173,61.563737 10.522193,57.301881 8.057723,49.070406 5.3486398,40.021907 5.1758016,33.56821 7.5716542,30.920823 c 2.0888556,-2.30816 7.9649608,-2.559104 12.7831918,-0.545919 3.45622,1.444101 11.025185,7.578399 10.275645,8.327938 -0.240174,0.240174 -2.262361,-0.494712 -4.493748,-1.633081 -2.231387,-1.138368 -5.312494,-2.039305 -6.846905,-2.002081 -2.729684,0.06622 -2.741324,0.09108 -0.539838,1.152815 2.097928,1.011792 3.176843,2.925849 1.5,2.661084 -0.4125,-0.06513 -1.8176,-0.06513 -3.122445,0 C 15.136183,38.980979 14.95507,39.240937 16,40.5 c 0.684689,0.825 2.228781,1.5 3.431315,1.5 1.202534,0 3.059934,0.660688 4.127555,1.468197 1.848343,1.398016 1.797729,1.472099 -1.05887,1.549844 -2.962511,0.08063 -2.946983,0.107361 1.24258,2.1393 2.33342,1.131709 3.994362,2.459279 3.690983,2.950156 -0.805364,1.303106 -2.476166,1.091683 -2.183563,-0.276308 0.1375,-0.642846 -2.134537,-1.908098 -5.048972,-2.811671 l -5.298971,-1.642861 3.798971,-1.06196 c 3.793013,-1.060295 3.794117,-1.062158 0.70396,-1.188329 C 16.698592,43.015867 13,40.483405 13,38.74081 c 0,-0.330939 1.0125,-0.779959 2.25,-0.997822 2.242139,-0.39473 2.241265,-0.399838 -0.25,-1.461829 l -2.5,-1.065715 2.804286,-0.729755 c 1.542357,-0.401365 4.354857,-0.478132 6.25,-0.170593 4.705347,0.763573 4.323369,-0.03933 -1.176036,-2.471976 -4.731907,-2.093148 -9.29755,-1.984911 -12.0329423,0.285263 -2.9215683,2.424687 0.04984,18.999921 5.1869323,28.933962 1.339348,2.590014 1.742329,2.783259 3.507399,1.681938 1.807634,-1.12788 1.842667,-1.355178 0.374487,-2.429687 -1.610228,-1.178468 -0.747099,-1.485837 7.388695,-2.631186 0.716552,-0.100876 1.166552,-0.451747 1,-0.779715 -0.166551,-0.327968 0.344984,-1.376862 1.136745,-2.330876 1.337945,-1.612125 1.161467,-1.682493 -2.5,-0.996838 -3.583507,0.671055 -3.816249,0.588858 -2.575144,-0.909458 0.941172,-1.136224 2.181992,-1.452198 4,-1.018599 3.88511,0.926609 4.357203,1.380108 3.061692,2.941104 C 28.282062,55.365062 28.090311,56 28.5,56 c 0.409689,0 0.184689,0.675 -0.5,1.5 -0.714903,0.861405 -2.89568,1.5 -5.122445,1.5 -4.019283,0 -4.73212,0.745435 -2.677555,2.8 0.933333,0.933333 0.727405,1.2 -0.926676,1.2 -1.169672,0 -2.272172,0.724691 -2.45,1.610425 -0.2839,1.414062 -0.522002,1.383579 -1.952735,-0.25 z M 311.55136,58.322047 c -3.27175,-3.082765 -4.98431,-5.088937 -3.80569,-4.45816 1.17862,0.630777 2.41956,1.594448 2.75765,2.14149 C 310.84141,56.55242 311.61122,57 312.214,57 c 1.74097,0 -2.30328,-4.039463 -7.15978,-7.151319 C 302.60904,48.281906 301.06939,47 301.63277,47 c 1.8393,0 10.13931,6.003211 11.79618,8.531903 C 314.31838,56.889356 314.78009,58 314.45496,58 c -0.32513,0 0.37014,1.35 1.54504,3 1.1749,1.65 1.99305,2.983592 1.81809,2.963537 -0.17495,-0.02005 -2.99498,-2.558725 -6.26673,-5.64149 z M 81,61 c 0,-0.55 0.476558,-1 1.059017,-1 0.582459,0 0.780902,0.45 0.440983,1 -0.339919,0.55 -0.816476,1 -1.059017,1 C 81.198442,62 81,61.55 81,61 Z m 53.42857,-1 c 0,-1.295238 0.3381,-1.633333 0.98572,-0.985714 0.64761,0.647619 0.64761,1.323809 0,1.971428 -0.64762,0.647619 -0.98572,0.309524 -0.98572,-0.985714 z m 0.2381,-3.666667 C 134.3,55.966667 134,55.201667 134,54.633333 c 0,-0.626604 0.46577,-0.567562 1.18333,0.15 0.65084,0.650834 0.95084,1.415834 0.66667,1.7 -0.28417,0.284167 -0.81667,0.216667 -1.18333,-0.15 z M 130.75,48.337719 c 0.6875,-0.277412 1.8125,-0.277412 2.5,0 0.6875,0.277413 0.125,0.504386 -1.25,0.504386 -1.375,0 -1.9375,-0.226973 -1.25,-0.504386 z m 1.0625,-3.020833 c 0.72187,-0.288871 1.58437,-0.253344 1.91667,0.07895 0.33229,0.332292 -0.25834,0.568641 -1.3125,0.52522 -1.16495,-0.04798 -1.4019,-0.284941 -0.60417,-0.604167 z m -5.0733,-4.206188 c -0.63052,-2.411107 0.69144,-4.840953 1.72441,-3.169574 0.39249,0.635058 0.46286,1.808101 0.15639,2.606763 -0.77271,2.013656 -0.34286,1.894437 6.76,-1.874874 5.58407,-2.963325 7.233,-3.349473 15.08532,-3.532704 6.3302,-0.147714 10.16887,-0.787722 13.61415,-2.26984 2.63899,-1.135267 5.21949,-1.803736 5.73443,-1.485487 0.51494,0.318249 2.76708,-0.747613 5.00476,-2.368583 3.91172,-2.833634 4.09323,-2.869385 4.70951,-0.927634 0.62886,1.981362 0.7009,1.974049 3.80641,-0.386377 C 189.84025,22.757577 198,20.141197 198,23 c 0,1.000846 -1.18644,1.331496 -4,1.11476 -0.825,-0.06355 -4.65,1.88532 -8.5,4.330828 -6.75079,4.288078 -7.01932,4.368555 -7.54271,2.260476 -0.40625,-1.636291 -0.75024,-1.850088 -1.36814,-0.850312 -0.45399,0.734574 -4.02208,2.867537 -7.92908,4.739918 -6.90859,3.310853 -11.38542,4.386986 -10.1876,2.448881 0.54904,-0.888367 -6.46003,0.869204 -12.39055,3.107015 -2.12759,0.80282 -2.35421,0.743228 -1.28784,-0.338655 0.71174,-0.722101 2.73674,-1.841176 4.5,-2.486833 1.76325,-0.645657 2.4726,-1.208157 1.57631,-1.25 -0.89628,-0.04184 -4.61124,1.424571 -8.25546,3.258698 -4.17186,2.099686 -6.04151,2.689079 -5.0481,1.591375 0.86777,-0.95887 2.90966,-2.295091 4.53753,-2.969378 1.62787,-0.674287 2.7436,-1.442144 2.4794,-1.706349 -0.26421,-0.264205 -3.38925,1.146366 -6.94455,3.134602 -7.24228,4.050115 -10.17091,4.51377 -10.90001,1.725672 z m -3.14614,-2.828058 c 0.15889,-2.080452 0.31545,-4.12014 0.34792,-4.53264 0.0325,-0.4125 0.42596,-0.75 0.87445,-0.75 1.14568,0 0.61808,8.355497 -0.55224,8.745602 -0.53125,0.177084 -0.83017,-1.36759 -0.67013,-3.462962 z M 106,37.893011 c 0,-0.608844 -0.7251,-0.82874 -1.61134,-0.488659 -1.18825,0.455973 -1.44784,0.192257 -0.98866,-1.004352 0.47898,-1.248198 0.2162,-1.455413 -1.13866,-0.897887 C 98.621264,37.00001 97,37.200213 97,36.151815 c 0,-0.594796 0.843789,-1.53303 1.875087,-2.084964 1.031298,-0.551934 2.113613,-1.915626 2.405133,-3.030426 0.45971,-1.757935 0.17771,-1.944716 -2.125084,-1.407517 -2.400957,0.560098 -2.510972,0.466763 -1.149214,-0.974966 0.945338,-1.000853 2.350948,-1.373378 3.775958,-1.000731 l 2.27003,0.593627 -1.99223,3.376581 C 100.96395,33.480539 100.47572,35 100.97471,35 c 0.49899,0 1.18537,-0.45 1.52529,-1 0.89258,-1.44423 3.7443,-1.232896 3.25298,0.241071 -0.65128,1.953817 2.13493,4.271015 3.49733,2.908618 C 110.72415,35.675848 107.6093,18.21708 104.80488,12.233051 102.41064,7.124251 99.940482,5.6009828 95.42414,6.4482536 91.990855,7.0923417 86,11.370256 86,13.177787 c 0,0.55 1.384526,-0.165002 3.076725,-1.588893 C 90.768924,10.165002 92.53212,9 92.994938,9 93.457756,9 94.637564,8.692574 95.616734,8.3168312 97.120212,7.7398927 97.039721,8.1354767 95.099092,10.860839 l -2.297953,3.227176 2.506496,-0.62909 2.506495,-0.629091 -2.40612,4.752695 c -2.618519,5.172235 -2.464836,6.683861 0.4146,4.078007 C 96.831789,20.747241 98.464648,20 99.451185,20 c 1.519565,0 1.593775,0.240896 0.485562,1.576215 -0.942786,1.135988 -0.995095,1.76969 -0.187289,2.268942 0.695752,0.429998 0.0076,1.331619 -1.814302,2.377274 -3.478342,1.996294 -3.637041,1.572017 -0.867062,-2.318061 C 99.409399,20.616311 98.258108,19.952325 95.5,23 c -3.558081,3.931635 -4.76234,1.341776 -1.926264,-4.14259 1.763192,-3.409637 1.258581,-4.793061 -1.04957,-2.877466 -2.077854,1.724466 -2.025934,-0.284515 0.09084,-3.515127 2.052565,-3.1326105 0.952987,-3.1354275 -3.147199,-0.0081 -1.771533,1.351214 -3.573656,2.138714 -4.004716,1.75 -0.43106,-0.388715 -0.487476,-0.188644 -0.125369,0.444602 0.362108,0.633246 -0.502837,3.108246 -1.922099,5.5 -2.298734,3.873848 -2.51048,4.021096 -1.939381,1.348644 1.968685,-9.212428 7.702648,-15.4276949 14.990865,-16.2491826 3.725783,-0.4199494 4.453933,-0.1333688 6.827093,2.6869688 1.46106,1.7363806 3.30659,5.3462078 4.10117,8.0218368 2.13522,7.190063 4.03426,19.478385 3.30421,21.380866 C 109.99447,39.177978 106,39.647601 106,37.893011 Z m 184.07372,-3.622492 c -3.44564,-1.627342 -8.00826,-2.777233 -12.5,-3.150299 L 270.5,30.532707 l 5,-0.552515 5,-0.552514 -4.5,-1.403687 c -2.475,-0.772028 -7.875,-1.372511 -12,-1.334407 l -7.5,0.06928 4.5,-1.281257 4.5,-1.281257 -4,-0.290246 c -5.99622,-0.435095 -7.625,-0.368793 -12,0.488476 -5.29662,1.037858 -3.92774,-0.195986 2.16535,-1.951741 L 256.5,21.049709 250,21.634576 c -3.575,0.321678 -8.38781,1.435493 -10.69514,2.475146 -5.76835,2.599152 -7.67137,2.350814 -2.8826,-0.376172 2.15724,-1.228453 4.14292,-2.90855 4.41262,-3.73355 0.38161,-1.167319 0.17706,-1.253406 -0.92226,-0.388149 -0.77694,0.611518 -3.57613,1.393974 -6.22041,1.738791 -2.64429,0.344817 -7.12693,1.736839 -9.96144,3.093382 -5.12844,2.454384 -7.17015,2.59536 -4.9141,0.339309 1.58071,-1.580716 1.52331,-3.306642 -0.0667,-2.004574 -1.53995,1.26109 -16.09552,6.195103 -16.65354,5.645178 -0.22195,-0.218726 1.24055,-1.08463 3.25,-1.92423 C 207.35591,25.660106 209,24.815631 209,24.623095 c 0,-1.012573 -11.03663,1.868515 -15.15797,3.956952 -6.20303,3.143314 -6.82089,3.051103 -3.41016,-0.508937 1.54333,-1.610889 3.54002,-2.940946 4.43709,-2.955682 0.89707,-0.01474 4.61529,-0.656924 8.26271,-1.427084 4.06788,-0.858943 7.24296,-1.058193 8.21289,-0.515394 1.40687,0.787324 3.54861,0.147576 10.05708,-3.004098 0.49591,-0.240138 0.65053,0.523633 0.34362,1.697267 -0.64463,2.465065 0.0199,2.660572 2.78223,0.818593 C 227.0572,20.997879 233.98634,19 237.307,19 c 1.41623,0 2.85308,-0.45 3.193,-1 1.05818,-1.712172 2.75811,-1.095027 2.25744,0.819543 -0.43039,1.645802 0.25075,1.813042 7.13337,1.751456 6.18768,-0.05537 9.74304,0.62654 19.03147,3.650191 6.28225,2.045053 11.68676,4.14622 12.01001,4.66926 0.32326,0.52304 1.93324,1.275515 3.57773,1.672166 3.72425,0.898291 10.14414,4.06878 10.98115,5.423094 0.77726,1.257644 1.07996,1.353478 -5.41745,-1.715191 z M 101.84988,25.680883 c 0.62302,-0.750696 0.79917,-1.733144 0.39144,-2.183218 -0.40772,-0.450073 -0.17882,-0.494612 0.50868,-0.09897 1.72817,0.994515 1.56305,2.267201 -0.39144,3.017211 -1.29726,0.497806 -1.40393,0.343685 -0.50868,-0.73502 z"
     id="path3709"
     inkscape:connector-curvature="0" />
</svg>
